<svg width="40" height="40" viewBox="0 0 40 40" fill="none" xmlns="http://www.w3.org/2000/svg">
<path d="M18.1818 38.1818C18.1818 39.186 18.9958 40 20 40C21.0042 40 21.8182 39.186 21.8182 38.1818V21.8182H38.1818C39.186 21.8182 40 21.0042 40 20C40 18.9958 39.186 18.1818 38.1818 18.1818H21.8182V1.81818C21.8182 0.814029 21.0042 0 20 0C18.9958 0 18.1818 0.814029 18.1818 1.81818V18.1818H1.81818C0.814028 18.1818 0 18.9958 0 20C0 21.0042 0.814028 21.8182 1.81818 21.8182H18.1818V38.1818Z" fill="#3B2E70"/>
</svg>
