<svg width="25" height="25" viewBox="0 0 25 25" fill="none" xmlns="http://www.w3.org/2000/svg">
<g opacity="0.5">
<g filter="url(#filter0_i_42_999)">
<path d="M9.52538 5.82944C10.7648 3.4006 14.2352 3.4006 15.4746 5.82944C15.9599 6.78039 16.8705 7.44202 17.9249 7.60965C20.6178 8.03782 21.6903 11.3384 19.7633 13.2677C19.0088 14.0231 18.661 15.0936 18.8274 16.1482C19.2523 18.8416 16.4447 20.8815 14.0143 19.645C13.0628 19.1609 11.9372 19.1609 10.9857 19.645C8.55535 20.8815 5.74767 18.8416 6.17263 16.1482C6.33901 15.0936 5.99117 14.0231 5.23672 13.2677C3.30974 11.3384 4.38217 8.03782 7.07513 7.60965C8.12948 7.44202 9.04013 6.78039 9.52538 5.82944Z" fill="url(#paint0_linear_42_999)"/>
</g>
<path d="M9.52538 5.82944C10.7648 3.4006 14.2352 3.4006 15.4746 5.82944C15.9599 6.78039 16.8705 7.44202 17.9249 7.60965C20.6178 8.03782 21.6903 11.3384 19.7633 13.2677C19.0088 14.0231 18.661 15.0936 18.8274 16.1482C19.2523 18.8416 16.4447 20.8815 14.0143 19.645C13.0628 19.1609 11.9372 19.1609 10.9857 19.645C8.55535 20.8815 5.74767 18.8416 6.17263 16.1482C6.33901 15.0936 5.99117 14.0231 5.23672 13.2677C3.30974 11.3384 4.38217 8.03782 7.07513 7.60965C8.12948 7.44202 9.04013 6.78039 9.52538 5.82944Z" fill="url(#paint1_linear_42_999)"/>
<path d="M11.6037 1.7573C11.9773 1.02511 13.0235 1.02511 13.3971 1.7573L16.0145 6.88662C16.1608 7.17329 16.4353 7.37274 16.7531 7.42327L22.4402 8.32749C23.252 8.45656 23.5753 9.45155 22.9944 10.0331L18.925 14.1074C18.6975 14.3352 18.5927 14.6579 18.6428 14.9758L19.5403 20.6639C19.6684 21.4759 18.822 22.0908 18.0894 21.7181L12.9569 19.1068C12.6701 18.9609 12.3308 18.9609 12.0439 19.1068L6.91148 21.7181C6.17885 22.0908 5.33246 21.4759 5.46057 20.6639L6.35801 14.9758C6.40817 14.6579 6.30331 14.3352 6.07588 14.1074L2.00641 10.0331C1.42552 9.45155 1.74881 8.45656 2.56061 8.32749L8.2477 7.42327C8.56554 7.37274 8.84006 7.17329 8.98634 6.88662L11.6037 1.7573Z" fill="url(#paint2_linear_42_999)"/>
<path d="M11.6037 1.7573C11.9773 1.02511 13.0235 1.02511 13.3971 1.7573L16.0145 6.88662C16.1608 7.17329 16.4353 7.37274 16.7531 7.42327L22.4402 8.32749C23.252 8.45656 23.5753 9.45155 22.9944 10.0331L18.925 14.1074C18.6975 14.3352 18.5927 14.6579 18.6428 14.9758L19.5403 20.6639C19.6684 21.4759 18.822 22.0908 18.0894 21.7181L12.9569 19.1068C12.6701 18.9609 12.3308 18.9609 12.0439 19.1068L6.91148 21.7181C6.17885 22.0908 5.33246 21.4759 5.46057 20.6639L6.35801 14.9758C6.40817 14.6579 6.30331 14.3352 6.07588 14.1074L2.00641 10.0331C1.42552 9.45155 1.74881 8.45656 2.56061 8.32749L8.2477 7.42327C8.56554 7.37274 8.84006 7.17329 8.98634 6.88662L11.6037 1.7573Z" fill="url(#paint3_linear_42_999)"/>
<path fill-rule="evenodd" clip-rule="evenodd" d="M15.7156 7.03914L13.0982 1.90982C12.8491 1.4217 12.1517 1.4217 11.9026 1.90983L9.28524 7.03914C9.0902 7.42137 8.72418 7.6873 8.30039 7.75468L2.61331 8.6589C2.0721 8.74494 1.85657 9.40827 2.24384 9.79599L6.3133 13.8703C6.61655 14.1739 6.75636 14.6042 6.68948 15.0281L5.79204 20.7162C5.70663 21.2575 6.27089 21.6675 6.75932 21.419L11.8917 18.8077C12.2742 18.6131 12.7266 18.6131 13.1091 18.8077L18.2415 21.419C18.7299 21.6675 19.2942 21.2575 19.2088 20.7162L18.3114 15.0281C18.2445 14.6042 18.3843 14.1739 18.6875 13.8703L22.757 9.796C23.1443 9.40827 22.9287 8.74494 22.3875 8.6589L16.7004 7.75468C16.2767 7.6873 15.9106 7.42136 15.7156 7.03914ZM13.3971 1.7573C13.0235 1.02511 11.9773 1.02511 11.6037 1.7573L8.98634 6.88662C8.84006 7.17329 8.56554 7.37274 8.2477 7.42327L2.56061 8.32749C1.74881 8.45656 1.42552 9.45155 2.00641 10.0331L6.07588 14.1074C6.30331 14.3352 6.40817 14.6579 6.35801 14.9758L5.46057 20.6639C5.33246 21.4759 6.17885 22.0908 6.91148 21.7181L12.0439 19.1068C12.3308 18.9609 12.6701 18.9609 12.9569 19.1068L18.0894 21.7181C18.822 22.0908 19.6684 21.4759 19.5403 20.6639L18.6428 14.9758C18.5927 14.6579 18.6975 14.3352 18.925 14.1074L22.9944 10.0331C23.5753 9.45155 23.252 8.45656 22.4402 8.32749L16.7531 7.42327C16.4353 7.37274 16.1608 7.17329 16.0145 6.88662L13.3971 1.7573Z" fill="url(#paint4_linear_42_999)"/>
<path d="M10.926 8.76028C11.6262 7.55005 13.3734 7.55005 14.0736 8.76028L14.176 8.93724C14.4334 9.38226 14.8673 9.69747 15.3701 9.80483L15.57 9.84752C16.9374 10.1395 17.4773 11.8011 16.5427 12.8411L16.406 12.9931C16.0624 13.3755 15.8966 13.8855 15.9499 14.3969L15.9711 14.6003C16.116 15.9909 14.7025 17.0179 13.4246 16.4504L13.2378 16.3674C12.7679 16.1587 12.2316 16.1587 11.7618 16.3674L11.5749 16.4504C10.2971 17.0179 8.88358 15.9909 9.02845 14.6003L9.04963 14.3969C9.1029 13.8855 8.93719 13.3755 8.59352 12.9931L8.45685 12.8411C7.52224 11.8011 8.06215 10.1395 9.42951 9.84752L9.62946 9.80483C10.1323 9.69747 10.5661 9.38226 10.8236 8.93724L10.926 8.76028Z" fill="url(#paint5_linear_42_999)"/>
<path d="M18.8903 10.7371C12.8173 16.4759 7.39348 13.9376 5.44066 11.9511C2.47019 7.53663 8.98873 11.0682 14.7646 9.52311C19.3854 8.28705 19.4404 9.81741 18.8903 10.7371Z" fill="url(#paint6_linear_42_999)"/>
<path fill-rule="evenodd" clip-rule="evenodd" d="M11.8119 2.89952C11.9359 2.96227 11.9856 3.11368 11.9228 3.23771L11.2113 4.64414C11.1485 4.76816 10.9971 4.81784 10.8731 4.75509C10.749 4.69233 10.6994 4.54092 10.7621 4.41689L11.4737 3.01046C11.5365 2.88644 11.6879 2.83676 11.8119 2.89952Z" fill="url(#paint7_linear_42_999)"/>
<ellipse cx="3.10397" cy="8.97656" rx="0.251678" ry="0.251678" fill="url(#paint8_linear_42_999)"/>
<ellipse cx="10.6543" cy="5.1174" rx="0.251678" ry="0.251678" fill="url(#paint9_linear_42_999)"/>
<path d="M10.0962 7.71581C8.18712 10.42 8.86936 11.8923 9.44911 12.2904C11.2099 13.0851 14.4182 8.3959 14.6353 7.155C14.8524 5.9141 12.4825 4.33561 10.0962 7.71581Z" fill="url(#paint10_linear_42_999)"/>
</g>
<defs>
<filter id="filter0_i_42_999" x="4.25659" y="-2.05297" width="16.4868" height="22.068" filterUnits="userSpaceOnUse" color-interpolation-filters="sRGB">
<feFlood flood-opacity="0" result="BackgroundImageFix"/>
<feBlend mode="normal" in="SourceGraphic" in2="BackgroundImageFix" result="shape"/>
<feColorMatrix in="SourceAlpha" type="matrix" values="0 0 0 0 0 0 0 0 0 0 0 0 0 0 0 0 0 0 127 0" result="hardAlpha"/>
<feOffset dy="-6.06078"/>
<feGaussianBlur stdDeviation="7.57597"/>
<feComposite in2="hardAlpha" operator="arithmetic" k2="-1" k3="1"/>
<feColorMatrix type="matrix" values="0 0 0 0 0.595833 0 0 0 0 0.83025 0 0 0 0 1 0 0 0 1 0"/>
<feBlend mode="normal" in2="shape" result="effect1_innerShadow_42_999"/>
</filter>
<linearGradient id="paint0_linear_42_999" x1="12.5" y1="0" x2="12.5" y2="25" gradientUnits="userSpaceOnUse">
<stop stop-color="white" stop-opacity="0"/>
<stop offset="1" stop-color="#AACCFF"/>
</linearGradient>
<linearGradient id="paint1_linear_42_999" x1="12.5" y1="0" x2="12.5" y2="25" gradientUnits="userSpaceOnUse">
<stop stop-color="white" stop-opacity="0"/>
<stop offset="1" stop-color="#AACCFF"/>
</linearGradient>
<linearGradient id="paint2_linear_42_999" x1="12.5004" y1="1.20816" x2="12.5004" y2="21.8296" gradientUnits="userSpaceOnUse">
<stop stop-color="white" stop-opacity="0"/>
<stop offset="1" stop-color="#AACCFF"/>
</linearGradient>
<linearGradient id="paint3_linear_42_999" x1="12.5004" y1="1.20816" x2="12.5004" y2="21.8296" gradientUnits="userSpaceOnUse">
<stop stop-color="white" stop-opacity="0"/>
<stop offset="1" stop-color="#AACCFF"/>
</linearGradient>
<linearGradient id="paint4_linear_42_999" x1="12.5004" y1="1.20816" x2="12.5004" y2="21.8296" gradientUnits="userSpaceOnUse">
<stop stop-color="white" stop-opacity="0"/>
<stop offset="1" stop-color="#AACCFF"/>
</linearGradient>
<linearGradient id="paint5_linear_42_999" x1="12.4998" y1="6.04016" x2="12.4998" y2="18.9596" gradientUnits="userSpaceOnUse">
<stop stop-color="white" stop-opacity="0"/>
<stop offset="1" stop-color="#AACCFF"/>
</linearGradient>
<linearGradient id="paint6_linear_42_999" x1="11.9128" y1="9.06039" x2="11.9128" y2="14.2617" gradientUnits="userSpaceOnUse">
<stop stop-color="white" stop-opacity="0"/>
<stop offset="1" stop-color="#AACCFF"/>
</linearGradient>
<linearGradient id="paint7_linear_42_999" x1="11.37" y1="2.86287" x2="11.3149" y2="4.79173" gradientUnits="userSpaceOnUse">
<stop stop-color="white" stop-opacity="0"/>
<stop offset="1" stop-color="#AACCFF"/>
</linearGradient>
<linearGradient id="paint8_linear_42_999" x1="3.10397" y1="8.72488" x2="3.10397" y2="9.22824" gradientUnits="userSpaceOnUse">
<stop stop-color="white" stop-opacity="0"/>
<stop offset="1" stop-color="#AACCFF"/>
</linearGradient>
<linearGradient id="paint9_linear_42_999" x1="10.6543" y1="4.86572" x2="10.6543" y2="5.36908" gradientUnits="userSpaceOnUse">
<stop stop-color="white" stop-opacity="0"/>
<stop offset="1" stop-color="#AACCFF"/>
</linearGradient>
<linearGradient id="paint10_linear_42_999" x1="10.1893" y1="7.38282" x2="12.8808" y2="10.3781" gradientUnits="userSpaceOnUse">
<stop stop-color="white" stop-opacity="0"/>
<stop offset="1" stop-color="#AACCFF"/>
</linearGradient>
</defs>
</svg>
