<svg width="120" height="120" viewBox="0 0 120 120" fill="none" xmlns="http://www.w3.org/2000/svg">
<g clip-path="url(#clip0_4_17)">
<path d="M158.842 82.3456C158.842 82.3456 209.182 96.5226 228.147 129.662C247.112 162.8 225.637 227.092 177.017 234C128.396 240.907 52.9089 210.116 32.9219 200.906C-14.6296 179.099 -37.7778 -2.26236 158.842 82.3456Z" fill="#FBBE3A"/>
</g>
<path fill-rule="evenodd" clip-rule="evenodd" d="M91.4351 11.5354C92.8364 12.1159 93.75 13.4833 93.75 15V20.9467L98.5984 16.0983C100.063 14.6339 102.437 14.6339 103.902 16.0983C105.366 17.5628 105.366 19.9372 103.902 21.4016L99.0534 26.25H105C106.517 26.25 107.884 27.1636 108.465 28.5649C109.045 29.9662 108.724 31.5791 107.652 32.6516L92.6517 47.6516C91.9484 48.3549 90.9946 48.75 90 48.75H76.5534L63.496 61.8073C63.6617 62.4269 63.75 63.0781 63.75 63.75C63.75 67.8921 60.3922 71.25 56.25 71.25C52.1079 71.25 48.75 67.8921 48.75 63.75C48.75 59.6079 52.1079 56.25 56.25 56.25C56.9219 56.25 57.5731 56.3383 58.1927 56.504L71.25 43.4467V30C71.25 29.0054 71.6451 28.0516 72.3484 27.3483L87.3484 12.3483C88.4209 11.2758 90.0338 10.955 91.4351 11.5354ZM78.75 35.9467L86.25 28.4467V24.0533L78.75 31.5533V35.9467ZM84.0533 41.25H88.4467L95.9467 33.75H91.5533L84.0533 41.25Z" fill="#181818"/>
<path d="M38.6449 30.6395C45.6371 26.9216 53.6269 25.5128 61.469 26.6149C63.5199 26.9032 65.4162 25.4742 65.7044 23.4233C65.9927 21.3724 64.5637 19.4762 62.5128 19.1879C53.1022 17.8654 43.5145 19.5559 35.1238 24.0173C26.7331 28.4788 19.9702 35.482 15.8043 44.0233C11.6384 52.5646 10.2835 62.2055 11.9337 71.5642C13.5839 80.9228 18.1545 89.5189 24.9904 96.1203C31.8263 102.722 40.5767 106.989 49.9873 108.312C59.3978 109.635 68.9855 107.944 77.3763 103.483C85.767 99.0212 92.5299 92.018 96.6958 83.4767C100.862 74.9354 102.217 65.2945 100.566 55.9358C100.207 53.8962 98.2618 52.5343 96.2222 52.894C94.1826 53.2536 92.8207 55.1986 93.1803 57.2382C94.5555 65.0371 93.4264 73.0712 89.9548 80.1889C86.4833 87.3067 80.8475 93.1427 73.8552 96.8605C66.863 100.578 58.8732 101.987 51.0311 100.885C43.1889 99.7829 35.897 96.2264 30.2004 90.7252C24.5037 85.2241 20.6949 78.0607 19.3198 70.2618C17.9446 62.4629 19.0737 54.4288 22.5453 47.3111C26.0168 40.1933 31.6526 34.3573 38.6449 30.6395Z" fill="#181818"/>
<path d="M47.4474 47.1947C50.9436 45.3358 54.9385 44.6314 58.8595 45.1825C60.9104 45.4707 62.8067 44.0418 63.0949 41.9909C63.3832 39.9399 61.9542 38.0437 59.9033 37.7555C54.4138 36.984 48.821 37.9701 43.9264 40.5726C39.0318 43.1751 35.0868 47.2603 32.6567 52.2427C30.2266 57.2252 29.4362 62.849 30.3988 68.3083C31.3615 73.7675 34.0276 78.7819 38.0153 82.6327C42.0029 86.4835 47.1072 88.973 52.5967 89.7445C58.0863 90.516 63.6791 89.5299 68.5737 86.9274C73.4683 84.3249 77.4133 80.2397 79.8434 75.2572C82.2735 70.2748 83.0639 64.651 82.1012 59.1917C81.7416 57.1521 79.7966 55.7902 77.757 56.1499C75.7174 56.5095 74.3556 58.4545 74.7152 60.4941C75.4028 64.3935 74.8382 68.4106 73.1024 71.9695C71.3666 75.5283 68.5488 78.4463 65.0526 80.3053C61.5565 82.1642 57.5616 82.8686 53.6405 82.3175C49.7195 81.7664 46.0735 79.9882 43.2252 77.2376C40.3769 74.487 38.4725 70.9053 37.7849 67.0059C37.0973 63.1064 37.6619 59.0894 39.3977 55.5305C41.1334 51.9717 43.9513 49.0536 47.4474 47.1947Z" fill="#181818"/>
<defs>
<clipPath id="clip0_4_17">
<rect width="120" height="120" fill="white"/>
</clipPath>
</defs>
</svg>
