<svg width="25" height="25" viewBox="0 0 25 25" fill="none" xmlns="http://www.w3.org/2000/svg">
<g filter="url(#filter0_i_42_1023)">
<path d="M9.52538 5.82951C10.7648 3.40066 14.2352 3.40066 15.4746 5.8295C15.9599 6.78045 16.8705 7.44208 17.9249 7.60971C20.6178 8.03788 21.6903 11.3385 19.7633 13.2678C19.0088 14.0231 18.661 15.0937 18.8274 16.1482C19.2523 18.8417 16.4447 20.8816 14.0143 19.6451C13.0628 19.161 11.9372 19.161 10.9857 19.6451C8.55535 20.8816 5.74767 18.8417 6.17263 16.1482C6.33901 15.0937 5.99117 14.0231 5.23672 13.2678C3.30974 11.3385 4.38217 8.03788 7.07513 7.60971C8.12948 7.44208 9.04013 6.78045 9.52538 5.82951Z" fill="#ABFF58"/>
</g>
<path d="M9.52538 5.82951C10.7648 3.40066 14.2352 3.40066 15.4746 5.8295C15.9599 6.78045 16.8705 7.44208 17.9249 7.60971C20.6178 8.03788 21.6903 11.3385 19.7633 13.2678C19.0088 14.0231 18.661 15.0937 18.8274 16.1482C19.2523 18.8417 16.4447 20.8816 14.0143 19.6451C13.0628 19.161 11.9372 19.161 10.9857 19.6451C8.55535 20.8816 5.74767 18.8417 6.17263 16.1482C6.33901 15.0937 5.99117 14.0231 5.23672 13.2678C3.30974 11.3385 4.38217 8.03788 7.07513 7.60971C8.12948 7.44208 9.04013 6.78045 9.52538 5.82951Z" fill="#ABFF58"/>
<path d="M11.6032 1.75755C11.9768 1.02536 13.023 1.02536 13.3966 1.75754L16.014 6.88686C16.1603 7.17353 16.4348 7.37298 16.7526 7.42352L22.4397 8.32773C23.2515 8.4568 23.5748 9.45179 22.9939 10.0334L18.9245 14.1077C18.697 14.3354 18.5922 14.6581 18.6423 14.976L19.5398 20.6642C19.6679 21.4761 18.8215 22.0911 18.0889 21.7183L12.9564 19.1071C12.6696 18.9611 12.3303 18.9611 12.0434 19.1071L6.911 21.7183C6.17836 22.0911 5.33197 21.4761 5.46008 20.6642L6.35752 14.976C6.40768 14.6581 6.30282 14.3354 6.07539 14.1077L2.00592 10.0334C1.42503 9.45179 1.74832 8.4568 2.56013 8.32773L8.24721 7.42352C8.56505 7.37298 8.83957 7.17353 8.98585 6.88686L11.6032 1.75755Z" fill="#ABFF58"/>
<path d="M11.6032 1.75755C11.9768 1.02536 13.023 1.02536 13.3966 1.75754L16.014 6.88686C16.1603 7.17353 16.4348 7.37298 16.7526 7.42352L22.4397 8.32773C23.2515 8.4568 23.5748 9.45179 22.9939 10.0334L18.9245 14.1077C18.697 14.3354 18.5922 14.6581 18.6423 14.976L19.5398 20.6642C19.6679 21.4761 18.8215 22.0911 18.0889 21.7183L12.9564 19.1071C12.6696 18.9611 12.3303 18.9611 12.0434 19.1071L6.911 21.7183C6.17836 22.0911 5.33197 21.4761 5.46008 20.6642L6.35752 14.976C6.40768 14.6581 6.30282 14.3354 6.07539 14.1077L2.00592 10.0334C1.42503 9.45179 1.74832 8.4568 2.56013 8.32773L8.24721 7.42352C8.56505 7.37298 8.83957 7.17353 8.98585 6.88686L11.6032 1.75755Z" fill="#ABFF58"/>
<path fill-rule="evenodd" clip-rule="evenodd" d="M15.7151 7.03939L13.0977 1.91007C12.8487 1.42194 12.1512 1.42194 11.9021 1.91007L9.28475 7.03939C9.08972 7.42161 8.72369 7.68754 8.2999 7.75492L2.61282 8.65914C2.07161 8.74519 1.85609 9.40851 2.24335 9.79624L6.31281 13.8706C6.61606 14.1742 6.75587 14.6044 6.68899 15.0283L5.79155 20.7165C5.70615 21.2578 6.27041 21.6677 6.75883 21.4192L11.8913 18.808C12.2737 18.6134 12.7261 18.6134 13.1086 18.808L18.241 21.4192C18.7295 21.6677 19.2937 21.2578 19.2083 20.7165L18.3109 15.0283C18.244 14.6044 18.3838 14.1742 18.687 13.8706L22.7565 9.79624C23.1438 9.40851 22.9282 8.74519 22.387 8.65914L16.7 7.75492C16.2762 7.68754 15.9101 7.42161 15.7151 7.03939ZM13.3966 1.75754C13.023 1.02536 11.9768 1.02536 11.6032 1.75755L8.98585 6.88686C8.83957 7.17353 8.56505 7.37298 8.24721 7.42352L2.56013 8.32773C1.74832 8.4568 1.42503 9.45179 2.00592 10.0334L6.07539 14.1077C6.30282 14.3354 6.40768 14.6581 6.35752 14.976L5.46008 20.6642C5.33197 21.4761 6.17836 22.0911 6.911 21.7183L12.0434 19.1071C12.3303 18.9611 12.6696 18.9611 12.9564 19.1071L18.0889 21.7183C18.8215 22.0911 19.6679 21.4761 19.5398 20.6642L18.6423 14.976C18.5922 14.6581 18.697 14.3354 18.9245 14.1077L22.9939 10.0334C23.5748 9.45179 23.2515 8.4568 22.4397 8.32773L16.7526 7.42352C16.4348 7.37298 16.1603 7.17353 16.014 6.88686L13.3966 1.75754Z" fill="#ABFF58"/>
<path d="M10.9262 8.76049C11.6264 7.55027 13.3736 7.55027 14.0738 8.76049L14.1762 8.93745C14.4337 9.38247 14.8675 9.69768 15.3703 9.80504L15.5703 9.84773C16.9376 10.1397 17.4775 11.8014 16.5429 12.8413L16.4063 12.9933C16.0626 13.3757 15.8969 13.8857 15.9502 14.3971L15.9713 14.6005C16.1162 15.9911 14.7027 17.0181 13.4249 16.4506L13.238 16.3676C12.7681 16.1589 12.2319 16.1589 11.762 16.3676L11.5752 16.4506C10.2973 17.0181 8.88382 15.9911 9.02869 14.6005L9.04988 14.3971C9.10315 13.8857 8.93743 13.3757 8.59376 12.9933L8.4571 12.8413C7.52248 11.8014 8.06239 10.1397 9.42976 9.84773L9.6297 9.80504C10.1325 9.69768 10.5664 9.38247 10.8238 8.93745L10.9262 8.76049Z" fill="#ABFF58"/>
<path d="M18.8901 10.7373C12.8171 16.4761 7.39323 13.9378 5.44042 11.9513C2.46995 7.53681 8.98848 11.0684 14.7644 9.52329C19.3851 8.28724 19.4401 9.81759 18.8901 10.7373Z" fill="#ABFF58"/>
<path fill-rule="evenodd" clip-rule="evenodd" d="M11.8117 2.89946C11.9357 2.96221 11.9854 3.11362 11.9226 3.23765L11.211 4.64408C11.1483 4.7681 10.9968 4.81778 10.8728 4.75502C10.7488 4.69227 10.6991 4.54086 10.7619 4.41683L11.4735 3.0104C11.5362 2.88638 11.6876 2.8367 11.8117 2.89946Z" fill="#ABFF58"/>
<circle cx="3.10422" cy="8.97653" r="0.251678" fill="#ABFF58"/>
<circle cx="10.6545" cy="5.11764" r="0.251678" fill="#ABFF58"/>
<path d="M10.0964 7.71584C8.18736 10.42 8.8696 11.8923 9.44936 12.2904C11.2101 13.0852 14.4184 8.39593 14.6355 7.15503C14.8526 5.91413 12.4827 4.33564 10.0964 7.71584Z" fill="white" fill-opacity="0.6"/>
<defs>
<filter id="filter0_i_42_1023" x="4.25659" y="-2.0529" width="16.4868" height="22.068" filterUnits="userSpaceOnUse" color-interpolation-filters="sRGB">
<feFlood flood-opacity="0" result="BackgroundImageFix"/>
<feBlend mode="normal" in="SourceGraphic" in2="BackgroundImageFix" result="shape"/>
<feColorMatrix in="SourceAlpha" type="matrix" values="0 0 0 0 0 0 0 0 0 0 0 0 0 0 0 0 0 0 127 0" result="hardAlpha"/>
<feOffset dy="-6.06078"/>
<feGaussianBlur stdDeviation="7.57597"/>
<feComposite in2="hardAlpha" operator="arithmetic" k2="-1" k3="1"/>
<feColorMatrix type="matrix" values="0 0 0 0 0.595833 0 0 0 0 0.83025 0 0 0 0 1 0 0 0 1 0"/>
<feBlend mode="normal" in2="shape" result="effect1_innerShadow_42_1023"/>
</filter>
</defs>
</svg>
