<svg width="120" height="120" viewBox="0 0 120 120" fill="none" xmlns="http://www.w3.org/2000/svg">
<g clip-path="url(#clip0_4_11)">
<g clip-path="url(#clip1_4_11)">
<path d="M228.298 160.999C207.239 148.845 186.962 134.327 162.745 134.002C112.352 133.267 100.455 194.764 61.2962 203.07C13.0814 213.453 2.18467 156.462 14.4002 132.199C43.5208 74.3668 82.6161 18.3548 114.491 15.6291C164.095 11.4499 228.023 79.2176 251.542 129.338C275.061 179.458 246.579 171.51 228.298 160.999Z" fill="#C6EFDF"/>
</g>
</g>
<path d="M60 78.75C62.0711 78.75 63.75 80.4289 63.75 82.5V86.25C63.75 88.3211 62.0711 90 60 90C57.9289 90 56.25 88.3211 56.25 86.25V82.5C56.25 80.4289 57.9289 78.75 60 78.75Z" fill="#181818"/>
<path d="M60 30C57.7162 30 55.636 31.3307 54.8161 33.4622C53.7575 36.2143 52.5 39.9863 52.5 42.375C52.5 51.1587 54.3893 62.0206 55.4858 67.5852C55.9099 69.7373 57.8065 71.25 60 71.25C62.1934 71.25 64.0901 69.7373 64.5142 67.5852C65.6107 62.0206 67.5 51.1587 67.5 42.375C67.5 39.9863 66.2425 36.2143 65.1839 33.4622C64.364 31.3307 62.2838 30 60 30Z" fill="#181818"/>
<path fill-rule="evenodd" clip-rule="evenodd" d="M60 11.25C33.0761 11.25 11.25 33.0761 11.25 60C11.25 86.9239 33.0761 108.75 60 108.75C86.9239 108.75 108.75 86.9239 108.75 60C108.75 33.0761 86.9239 11.25 60 11.25ZM18.75 60C18.75 37.2183 37.2183 18.75 60 18.75C82.7817 18.75 101.25 37.2183 101.25 60C101.25 82.7817 82.7817 101.25 60 101.25C37.2183 101.25 18.75 82.7817 18.75 60Z" fill="#181818"/>
<defs>
<clipPath id="clip0_4_11">
<rect width="120" height="120" fill="white"/>
</clipPath>
<clipPath id="clip1_4_11">
<rect width="280" height="280" fill="white"/>
</clipPath>
</defs>
</svg>
