<svg width="25" height="25" viewBox="0 0 25 25" fill="none" xmlns="http://www.w3.org/2000/svg">
<g filter="url(#filter0_i_42_1059)">
<path d="M9.52538 5.82944C10.7648 3.4006 14.2352 3.4006 15.4746 5.82944C15.9599 6.78039 16.8705 7.44202 17.9249 7.60965C20.6178 8.03782 21.6903 11.3384 19.7633 13.2677C19.0088 14.0231 18.661 15.0936 18.8274 16.1482C19.2523 18.8416 16.4447 20.8815 14.0143 19.645C13.0628 19.1609 11.9372 19.1609 10.9857 19.645C8.55535 20.8815 5.74767 18.8416 6.17263 16.1482C6.33901 15.0936 5.99117 14.0231 5.23672 13.2677C3.30974 11.3384 4.38217 8.03782 7.07513 7.60965C8.12948 7.44202 9.04013 6.78039 9.52538 5.82944Z" fill="#FF9458"/>
</g>
<path d="M9.52538 5.82944C10.7648 3.4006 14.2352 3.4006 15.4746 5.82944C15.9599 6.78039 16.8705 7.44202 17.9249 7.60965C20.6178 8.03782 21.6903 11.3384 19.7633 13.2677C19.0088 14.0231 18.661 15.0936 18.8274 16.1482C19.2523 18.8416 16.4447 20.8815 14.0143 19.645C13.0628 19.1609 11.9372 19.1609 10.9857 19.645C8.55535 20.8815 5.74767 18.8416 6.17263 16.1482C6.33901 15.0936 5.99117 14.0231 5.23672 13.2677C3.30974 11.3384 4.38217 8.03782 7.07513 7.60965C8.12948 7.44202 9.04013 6.78039 9.52538 5.82944Z" fill="#FF9458"/>
<path d="M11.6032 1.75745C11.9768 1.02527 13.023 1.02527 13.3966 1.75745L16.014 6.88677C16.1603 7.17344 16.4348 7.37289 16.7526 7.42342L22.4397 8.32764C23.2515 8.45671 23.5748 9.4517 22.9939 10.0333L18.9245 14.1076C18.697 14.3353 18.5922 14.658 18.6423 14.9759L19.5398 20.6641C19.6679 21.476 18.8215 22.091 18.0889 21.7182L12.9564 19.107C12.6696 18.961 12.3303 18.961 12.0434 19.107L6.911 21.7182C6.17836 22.091 5.33197 21.476 5.46008 20.6641L6.35752 14.9759C6.40768 14.658 6.30282 14.3353 6.07539 14.1076L2.00592 10.0333C1.42503 9.4517 1.74832 8.45671 2.56013 8.32764L8.24721 7.42342C8.56505 7.37289 8.83957 7.17344 8.98585 6.88677L11.6032 1.75745Z" fill="#FF9458"/>
<path d="M11.6032 1.75745C11.9768 1.02527 13.023 1.02527 13.3966 1.75745L16.014 6.88677C16.1603 7.17344 16.4348 7.37289 16.7526 7.42342L22.4397 8.32764C23.2515 8.45671 23.5748 9.4517 22.9939 10.0333L18.9245 14.1076C18.697 14.3353 18.5922 14.658 18.6423 14.9759L19.5398 20.6641C19.6679 21.476 18.8215 22.091 18.0889 21.7182L12.9564 19.107C12.6696 18.961 12.3303 18.961 12.0434 19.107L6.911 21.7182C6.17836 22.091 5.33197 21.476 5.46008 20.6641L6.35752 14.9759C6.40768 14.658 6.30282 14.3353 6.07539 14.1076L2.00592 10.0333C1.42503 9.4517 1.74832 8.45671 2.56013 8.32764L8.24721 7.42342C8.56505 7.37289 8.83957 7.17344 8.98585 6.88677L11.6032 1.75745Z" fill="#FF9458"/>
<path fill-rule="evenodd" clip-rule="evenodd" d="M15.7151 7.0393L13.0977 1.90998C12.8487 1.42185 12.1512 1.42185 11.9021 1.90998L9.28475 7.0393C9.08972 7.42152 8.72369 7.68745 8.2999 7.75483L2.61282 8.65905C2.07161 8.7451 1.85609 9.40842 2.24335 9.79615L6.31281 13.8705C6.61606 14.1741 6.75587 14.6044 6.68899 15.0282L5.79155 20.7164C5.70615 21.2577 6.27041 21.6676 6.75883 21.4191L11.8913 18.8079C12.2737 18.6133 12.7261 18.6133 13.1086 18.8079L18.241 21.4191C18.7295 21.6676 19.2937 21.2577 19.2083 20.7164L18.3109 15.0282C18.244 14.6044 18.3838 14.1741 18.687 13.8705L22.7565 9.79615C23.1438 9.40842 22.9282 8.7451 22.387 8.65905L16.7 7.75483C16.2762 7.68745 15.9101 7.42152 15.7151 7.0393ZM13.3966 1.75745C13.023 1.02527 11.9768 1.02527 11.6032 1.75745L8.98585 6.88677C8.83957 7.17344 8.56505 7.37289 8.24721 7.42342L2.56013 8.32764C1.74832 8.45671 1.42503 9.4517 2.00592 10.0333L6.07539 14.1076C6.30282 14.3353 6.40768 14.658 6.35752 14.9759L5.46008 20.6641C5.33197 21.476 6.17836 22.091 6.911 21.7182L12.0434 19.107C12.3303 18.961 12.6696 18.961 12.9564 19.107L18.0889 21.7182C18.8215 22.091 19.6679 21.476 19.5398 20.6641L18.6423 14.9759C18.5922 14.658 18.697 14.3353 18.9245 14.1076L22.9939 10.0333C23.5748 9.4517 23.2515 8.45671 22.4397 8.32764L16.7526 7.42342C16.4348 7.37289 16.1603 7.17344 16.014 6.88677L13.3966 1.75745Z" fill="#FF9458"/>
<path d="M10.9262 8.76043C11.6264 7.55021 13.3736 7.55021 14.0738 8.76043L14.1762 8.93739C14.4337 9.38241 14.8675 9.69762 15.3703 9.80498L15.5703 9.84767C16.9376 10.1396 17.4775 11.8013 16.5429 12.8412L16.4063 12.9933C16.0626 13.3757 15.8969 13.8857 15.9502 14.3971L15.9713 14.6004C16.1162 15.9911 14.7027 17.018 13.4249 16.4505L13.238 16.3675C12.7681 16.1588 12.2319 16.1588 11.762 16.3675L11.5752 16.4505C10.2973 17.018 8.88382 15.9911 9.02869 14.6004L9.04988 14.3971C9.10315 13.8857 8.93743 13.3757 8.59376 12.9933L8.4571 12.8412C7.52248 11.8013 8.06239 10.1396 9.42976 9.84767L9.6297 9.80498C10.1325 9.69762 10.5664 9.38241 10.8238 8.93739L10.9262 8.76043Z" fill="#FF9458"/>
<path d="M18.8905 10.7372C12.8176 16.4761 7.39372 13.9377 5.44091 11.9512C2.47044 7.53675 8.98897 11.0683 14.7649 9.52323C19.3856 8.28718 19.4406 9.81753 18.8905 10.7372Z" fill="#FF9458"/>
<path fill-rule="evenodd" clip-rule="evenodd" d="M11.8117 2.89943C11.9357 2.96218 11.9854 3.11359 11.9226 3.23762L11.211 4.64405C11.1483 4.76807 10.9968 4.81775 10.8728 4.75499C10.7488 4.69224 10.6991 4.54083 10.7619 4.4168L11.4735 3.01037C11.5362 2.88635 11.6876 2.83667 11.8117 2.89943Z" fill="#FF9458"/>
<ellipse cx="3.10422" cy="8.97644" rx="0.251678" ry="0.251678" fill="#FF9458"/>
<ellipse cx="10.6543" cy="5.11761" rx="0.251678" ry="0.251678" fill="#FF9458"/>
<path d="M10.0962 7.71581C8.18712 10.42 8.86936 11.8923 9.44911 12.2904C11.2099 13.0851 14.4182 8.3959 14.6353 7.155C14.8524 5.9141 12.4825 4.33561 10.0962 7.71581Z" fill="white" fill-opacity="0.6"/>
<defs>
<filter id="filter0_i_42_1059" x="4.25659" y="-2.05297" width="16.4868" height="22.068" filterUnits="userSpaceOnUse" color-interpolation-filters="sRGB">
<feFlood flood-opacity="0" result="BackgroundImageFix"/>
<feBlend mode="normal" in="SourceGraphic" in2="BackgroundImageFix" result="shape"/>
<feColorMatrix in="SourceAlpha" type="matrix" values="0 0 0 0 0 0 0 0 0 0 0 0 0 0 0 0 0 0 127 0" result="hardAlpha"/>
<feOffset dy="-6.06078"/>
<feGaussianBlur stdDeviation="7.57597"/>
<feComposite in2="hardAlpha" operator="arithmetic" k2="-1" k3="1"/>
<feColorMatrix type="matrix" values="0 0 0 0 0.595833 0 0 0 0 0.83025 0 0 0 0 1 0 0 0 1 0"/>
<feBlend mode="normal" in2="shape" result="effect1_innerShadow_42_1059"/>
</filter>
</defs>
</svg>
