<svg width="120" height="120" viewBox="0 0 120 120" fill="none" xmlns="http://www.w3.org/2000/svg">
<g clip-path="url(#clip0_4_5)">
<g clip-path="url(#clip1_4_5)">
<path d="M162.229 161.265C164.8 122.931 196.008 96.6174 228.541 79.4555C233.179 77.3275 236.951 73.6766 239.224 69.1156C241.497 64.555 242.132 59.3619 241.023 54.4089C239.913 49.4557 237.127 45.044 233.132 41.9149C229.137 38.7854 224.176 37.1293 219.083 37.2239C172.204 36.3957 76.9543 14.2046 39.1963 64.1308C-43.7741 174.858 154.612 270.09 162.229 161.265Z" fill="#DF5759"/>
<path fill-rule="evenodd" clip-rule="evenodd" d="M93.75 22.65C93.75 21.3417 93.0771 20.1266 91.9715 19.4388C90.8659 18.751 89.4854 18.6884 88.323 19.2735L88.3189 19.2756L88.3122 19.279L88.2906 19.2899L88.2159 19.328C88.1525 19.3604 88.0621 19.4069 87.9476 19.4666C87.7186 19.5858 87.3926 19.7577 86.9917 19.9751C86.1915 20.4088 85.0846 21.0278 83.8519 21.7723C81.7569 23.0377 79.082 24.7934 76.9601 26.7106L41.1931 33.9117L41.0899 33.8954C40.5724 33.8141 39.8382 33.7083 38.9439 33.6054C37.1644 33.4005 34.7071 33.2016 32.0371 33.2391C29.3893 33.2763 26.3906 33.5469 23.5859 34.3537C20.8062 35.1532 17.8844 36.5765 15.8241 39.1638C14.1593 41.2544 12.9657 43.3193 12.2202 45.6433C11.482 47.9445 11.25 50.2941 11.25 52.85C11.25 55.4059 11.482 57.7555 12.2202 60.0567C12.9657 62.3807 14.1593 64.4456 15.8241 66.5362C17.8844 69.1235 20.8062 70.5468 23.5859 71.3463C25.967 72.0312 28.4879 72.3298 30.8152 72.427L37.5728 106.44C37.9234 108.205 39.4624 109.475 41.25 109.475H52.5C54.571 109.475 56.25 107.785 56.25 105.7V74.8198L76.9601 78.9894C79.082 80.9066 81.7569 82.6623 83.8519 83.9277C85.0846 84.6722 86.1915 85.2912 86.9917 85.725C87.3926 85.9423 87.7186 86.1142 87.9476 86.2334C88.0621 86.2931 88.1525 86.3396 88.2159 86.372L88.2906 86.4101L88.323 86.4265C89.4854 87.0116 90.8659 86.949 91.9715 86.2612C93.0771 85.5734 93.75 84.3583 93.75 83.05V67.95C102.034 67.95 108.75 61.1895 108.75 52.85C108.75 44.5105 102.034 37.75 93.75 37.75V22.65ZM48.75 73.3098L41.1931 71.7883L41.0899 71.8046C40.5724 71.8859 39.8382 71.9917 38.9439 72.0946C38.7719 72.1144 38.5936 72.1342 38.4094 72.1536L44.3242 101.925H48.75V73.3098ZM101.25 52.85C101.25 57.0197 97.8921 60.4 93.75 60.4V45.3C97.8921 45.3 101.25 48.6803 101.25 52.85ZM81.4017 32.8693C82.6124 31.6505 84.4142 30.338 86.25 29.1565V76.5435C84.4142 75.362 82.6124 74.0495 81.4017 72.8307C80.8781 72.3037 80.2114 71.9445 79.4854 71.7983L45 64.8552V40.8448L79.4854 33.9017C80.2114 33.7555 80.8781 33.3963 81.4017 32.8693ZM21.6759 43.8862C22.4014 42.9751 23.6851 42.1773 25.6465 41.6131C27.5829 41.0562 29.861 40.8204 32.1417 40.7884C34.1275 40.7605 36.0085 40.888 37.5 41.0419V64.6581C36.0085 64.812 34.1275 64.9395 32.1417 64.9116C29.861 64.8796 27.5829 64.6438 25.6465 64.0869C23.6851 63.5227 22.4014 62.7249 21.6759 61.8138C20.4441 60.267 19.7627 59.0004 19.3573 57.7367C18.9446 56.4502 18.75 54.956 18.75 52.85C18.75 50.744 18.9446 49.2498 19.3573 47.9633C19.7627 46.6996 20.4441 45.433 21.6759 43.8862Z" fill="#181818"/>
</g>
</g>
<defs>
<clipPath id="clip0_4_5">
<rect width="120" height="120" fill="white"/>
</clipPath>
<clipPath id="clip1_4_5">
<rect width="280" height="280" fill="white"/>
</clipPath>
</defs>
</svg>
