<svg width="40" height="40" viewBox="0 0 40 40" fill="none" xmlns="http://www.w3.org/2000/svg">
<path fill-rule="evenodd" clip-rule="evenodd" d="M32.9528 13.4813C32.9641 13.7728 32.9679 14.0642 32.9679 14.3556C32.9679 23.1927 26.7515 33.3944 15.3839 33.3944C11.8919 33.3944 8.64491 32.2815 5.90914 30.3869C6.39274 30.4399 6.88388 30.4798 7.38255 30.4798C10.2778 30.4798 12.9445 29.4064 15.0598 27.6045C12.3554 27.5648 10.0719 25.6172 9.28428 22.9674C9.66237 23.0469 10.0517 23.0868 10.4499 23.0868C11.0114 23.0868 11.5565 23.0074 12.0791 22.8484C9.24908 22.2389 7.11751 19.5362 7.11751 16.2903C7.11751 16.2505 7.11751 16.2372 7.11751 16.2107C7.95156 16.7009 8.90617 17.0055 9.91984 17.0452C8.25929 15.8396 7.16773 13.786 7.16773 11.4675C7.16773 10.2486 7.4717 9.09588 8.0068 8.10222C11.0541 12.1564 15.61 14.8194 20.7461 15.0977C20.6406 14.6075 20.5866 14.0909 20.5866 13.5742C20.5866 9.87773 23.3538 6.88342 26.7678 6.88342C28.5452 6.88342 30.1505 7.69172 31.2772 8.99011C32.6878 8.69864 34.0092 8.14222 35.205 7.37379C34.7415 8.93715 33.763 10.2485 32.4843 11.07C33.7354 10.911 34.9287 10.5535 36.0353 10.0236C35.205 11.3617 34.1599 12.5407 32.9528 13.4813Z" fill="#3B2E70"/>
</svg>
