<svg width="389" height="412" viewBox="0 0 389 412" fill="none" xmlns="http://www.w3.org/2000/svg">
<path fill-rule="evenodd" clip-rule="evenodd" d="M169.811 1.90453C216.954 11.1409 227.238 72.3859 265.415 100.254C301.858 126.857 367.168 118.612 384.894 158.91C402.416 198.746 359.114 238.425 344.119 279.182C329.585 318.684 338.061 375.362 298.501 393.721C257.518 412.74 215.35 357.741 169.811 360.074C119.371 362.658 75.3285 429.815 30.6315 407.445C-11.7453 386.236 1.62822 322.256 3.34269 276.76C4.6022 243.337 33.4481 217.967 39.0161 184.944C46.3408 141.503 14.5266 92.5887 40.5323 56.1952C67.6678 18.2207 122.512 -7.36212 169.811 1.90453Z" fill="#DF5759"/>
</svg>
