<svg width="245" height="240" viewBox="0 0 245 240" fill="none" xmlns="http://www.w3.org/2000/svg">
<path fill-rule="evenodd" clip-rule="evenodd" d="M106.95 1.10943C136.642 6.48982 143.119 42.1666 167.164 58.4005C190.116 73.897 231.25 69.0946 242.414 92.569C253.45 115.774 226.177 138.888 216.733 162.63C207.579 185.641 212.918 218.657 188.002 229.352C162.19 240.431 135.632 208.393 106.95 209.752C75.182 211.257 47.4434 250.378 19.2923 237.346C-7.39742 224.992 1.02548 187.722 2.10529 161.219C2.89856 141.75 21.0663 126.971 24.5731 107.735C29.1863 82.429 9.14916 53.9352 25.528 32.7351C42.6185 10.614 77.1608 -4.28861 106.95 1.10943Z" fill="#DF5759"/>
</svg>
